<svg width="2564" height="1978" viewBox="0 0 2564 1978" fill="none" xmlns="http://www.w3.org/2000/svg">
<rect width="2564" height="1978" fill="#1E1E1E"/>
<g clip-path="url(#clip0_0_1)">
<path fill-rule="evenodd" clip-rule="evenodd" d="M1801.97 0H850.12C842.56 0 835.719 2.87515 830.767 7.52314C825.813 12.1726 822.75 18.596 822.75 25.6912V637.84C822.75 644.931 825.814 651.355 830.769 656.006C835.722 660.655 842.563 663.531 850.12 663.531H1801.97C1809.53 663.531 1816.38 660.656 1821.33 656.008C1826.28 651.359 1829.34 644.935 1829.34 637.84V25.6912C1829.34 18.5997 1826.28 12.1756 1821.33 7.52505C1816.37 2.87645 1809.53 0 1801.97 0Z" fill="white" stroke="black" stroke-width="7.80568"/>
<path fill-rule="evenodd" clip-rule="evenodd" d="M1398.04 664.458H1253.7L1243.96 782.848H1407.79L1398.04 664.458Z" fill="white" stroke="black" stroke-width="7.80568"/>
<path fill-rule="evenodd" clip-rule="evenodd" d="M1467.75 815.694H1185.32C1185.05 815.694 1184.81 815.566 1184.63 815.359C1184.45 815.149 1184.34 814.859 1184.34 814.539V799.106C1184.34 794.526 1185.93 790.379 1188.49 787.378C1191.06 784.376 1194.6 782.519 1198.52 782.519H1454.55C1458.47 782.519 1462.01 784.377 1464.58 787.379C1467.14 790.381 1468.73 794.527 1468.73 799.106V814.539C1468.73 814.859 1468.62 815.15 1468.44 815.359C1468.27 815.567 1468.02 815.694 1467.75 815.694Z" fill="white" stroke="black" stroke-width="7.80568"/>
<path d="M1340.71 604.336C1340.71 611.33 1334.6 617.412 1326.54 617.412C1318.47 617.412 1312.36 611.33 1312.36 604.336C1312.36 597.342 1318.47 591.261 1326.54 591.261C1334.6 591.261 1340.71 597.342 1340.71 604.336Z" stroke="black" stroke-width="7.80568"/>
<path d="M1441.15 239.341C1446.91 239.341 1451.57 237.02 1451.57 234.156C1451.57 231.293 1446.91 228.971 1441.15 228.971C1435.4 228.971 1430.73 231.293 1430.73 234.156C1430.73 237.02 1435.4 239.341 1441.15 239.341Z" fill="#293347"/>
<path fill-rule="evenodd" clip-rule="evenodd" d="M1754.92 34.1499H899.132C887.483 34.1499 876.939 36.6132 869.307 40.5961C861.675 44.579 856.955 50.0815 856.955 56.1595V85.8625H1797.09V56.1595C1797.09 50.0833 1792.37 44.5808 1784.74 40.5973C1777.11 36.6143 1766.56 34.1499 1754.92 34.1499Z" fill="#164D4D" stroke="black" stroke-width="7.80568"/>
<path fill-rule="evenodd" clip-rule="evenodd" d="M1797.09 80.1364H1327.02H856.955V535.512C856.955 541.296 861.673 546.529 869.302 550.316C876.936 554.105 887.482 556.447 899.132 556.447H1754.92C1766.57 556.447 1777.11 554.104 1784.74 550.315C1792.37 546.527 1797.09 541.293 1797.09 535.512V378.861V80.1364Z" fill="#ADBFD2" stroke="black" stroke-width="7.80568"/>
<path opacity="0.54" d="M956.583 381.39H930.096C924.244 381.39 919.5 383.905 919.5 387.008C919.5 390.11 924.244 392.625 930.096 392.625H956.583C962.435 392.625 967.178 390.11 967.178 387.008C967.178 383.905 962.435 381.39 956.583 381.39Z" fill="#535B6B"/>
<path opacity="0.54" d="M956.583 100.498H930.096C924.244 100.498 919.5 103.013 919.5 106.116C919.5 109.219 924.244 111.734 930.096 111.734H956.583C962.435 111.734 967.178 109.219 967.178 106.116C967.178 103.013 962.435 100.498 956.583 100.498Z" fill="#535B6B"/>
<path fill-rule="evenodd" clip-rule="evenodd" d="M1009.56 100.498H1081.07C1086.93 100.498 1091.67 103.416 1091.67 107.014C1091.67 110.613 1086.93 113.531 1081.07 113.531H1009.56C1003.71 113.531 998.963 110.613 998.963 107.014C998.963 103.416 1003.71 100.498 1009.56 100.498Z" fill="#6E07F3"/>
<path fill-rule="evenodd" clip-rule="evenodd" d="M1128.75 100.498H1200.27C1206.12 100.498 1210.86 103.416 1210.86 107.014C1210.86 110.613 1206.12 113.531 1200.27 113.531H1128.75C1122.9 113.531 1118.16 110.613 1118.16 107.014C1118.16 103.416 1122.9 100.498 1128.75 100.498Z" fill="#5BE9B9"/>
<path fill-rule="evenodd" clip-rule="evenodd" d="M1221.32 183.706H1353.76C1359.61 183.706 1364.36 186.623 1364.36 190.222C1364.36 193.821 1359.61 196.738 1353.76 196.738H1221.32C1215.47 196.738 1210.73 193.821 1210.73 190.222C1210.73 186.623 1215.47 183.706 1221.32 183.706Z" fill="#6E07F3"/>
<path fill-rule="evenodd" clip-rule="evenodd" d="M1255.06 100.498H1388.24C1392.21 100.498 1395.43 103.416 1395.43 107.014C1395.43 110.613 1392.21 113.531 1388.24 113.531H1255.06C1251.09 113.531 1247.87 110.613 1247.87 107.014C1247.87 103.416 1251.09 100.498 1255.06 100.498Z" fill="#FF7A00"/>
<path opacity="0.54" d="M956.583 156.677H930.096C924.244 156.677 919.5 159.192 919.5 162.294C919.5 165.397 924.244 167.912 930.096 167.912H956.583C962.435 167.912 967.178 165.397 967.178 162.294C967.178 159.192 962.435 156.677 956.583 156.677Z" fill="#535B6B"/>
<path opacity="0.54" d="M956.583 212.855H930.096C924.244 212.855 919.5 215.37 919.5 218.473C919.5 221.575 924.244 224.09 930.096 224.09H956.583C962.435 224.09 967.178 221.575 967.178 218.473C967.178 215.37 962.435 212.855 956.583 212.855Z" fill="#535B6B"/>
<path opacity="0.54" d="M956.583 269.033H930.096C924.244 269.033 919.5 271.548 919.5 274.651C919.5 277.754 924.244 280.269 930.096 280.269H956.583C962.435 280.269 967.178 277.754 967.178 274.651C967.178 271.548 962.435 269.033 956.583 269.033Z" fill="#535B6B"/>
<path opacity="0.54" d="M956.583 325.211H930.096C924.244 325.211 919.5 327.727 919.5 330.829C919.5 333.932 924.244 336.447 930.096 336.447H956.583C962.435 336.447 967.178 333.932 967.178 330.829C967.178 327.727 962.435 325.211 956.583 325.211Z" fill="#535B6B"/>
<path opacity="0.54" d="M956.583 437.568H930.096C924.244 437.568 919.5 440.083 919.5 443.186C919.5 446.289 924.244 448.804 930.096 448.804H956.583C962.435 448.804 967.178 446.289 967.178 443.186C967.178 440.083 962.435 437.568 956.583 437.568Z" fill="#535B6B"/>
<path opacity="0.54" d="M956.583 493.746H930.096C924.244 493.746 919.5 496.262 919.5 499.364C919.5 502.467 924.244 504.982 930.096 504.982H956.583C962.435 504.982 967.178 502.467 967.178 499.364C967.178 496.262 962.435 493.746 956.583 493.746Z" fill="#535B6B"/>
<path d="M1176.11 183.706H1093.87C1090.94 183.706 1088.57 186.623 1088.57 190.222C1088.57 193.821 1090.94 196.738 1093.87 196.738H1176.11C1179.04 196.738 1181.41 193.821 1181.41 190.222C1181.41 186.623 1179.04 183.706 1176.11 183.706Z" fill="#F30707"/>
<path d="M1242.82 127.566H1101.44C1098.65 127.566 1096.39 130.483 1096.39 134.082C1096.39 137.681 1098.65 140.598 1101.44 140.598H1242.82C1245.6 140.598 1247.87 137.681 1247.87 134.082C1247.87 130.483 1245.6 127.566 1242.82 127.566Z" fill="#00FF19"/>
<path d="M1153.73 156.638H1042.48C1036.63 156.638 1031.89 159.556 1031.89 163.155C1031.89 166.753 1036.63 169.671 1042.48 169.671H1153.73C1159.58 169.671 1164.32 166.753 1164.32 163.155C1164.32 159.556 1159.58 156.638 1153.73 156.638Z" fill="#6E07F3"/>
<path d="M1080.48 212.779H1005.77C1001.85 212.779 998.66 215.696 998.66 219.295C998.66 222.894 1001.85 225.811 1005.77 225.811H1080.48C1084.41 225.811 1087.59 222.894 1087.59 219.295C1087.59 215.696 1084.41 212.779 1080.48 212.779Z" fill="#EBFF00"/>
<path d="M1236.8 212.779H1125.55C1119.7 212.779 1114.96 215.696 1114.96 219.295C1114.96 222.894 1119.7 225.811 1125.55 225.811H1236.8C1242.65 225.811 1247.39 222.894 1247.39 219.295C1247.39 215.696 1242.65 212.779 1236.8 212.779Z" fill="#6E07F3"/>
<path d="M1299.62 268.919H1096.43C1091.55 268.919 1087.59 271.836 1087.59 275.435C1087.59 279.034 1091.55 281.951 1096.43 281.951H1299.62C1304.5 281.951 1308.46 279.034 1308.46 275.435C1308.46 271.836 1304.5 268.919 1299.62 268.919Z" fill="#6E07F3"/>
<path d="M1475.24 268.919H1348.86C1344.36 268.919 1340.71 271.836 1340.71 275.435C1340.71 279.034 1344.36 281.951 1348.86 281.951H1475.24C1479.74 281.951 1483.39 279.034 1483.39 275.435C1483.39 271.836 1479.74 268.919 1475.24 268.919Z" fill="#FF7A00"/>
<path d="M1046.51 325.059H1000.65C999.552 325.059 998.66 327.976 998.66 331.575C998.66 335.174 999.552 338.091 1000.65 338.091H1046.51C1047.61 338.091 1048.5 335.174 1048.5 331.575C1048.5 327.976 1047.61 325.059 1046.51 325.059Z" fill="#EBFF00"/>
<path d="M1305.18 325.059H1085.98C1082.01 325.059 1078.8 327.976 1078.8 331.575C1078.8 335.174 1082.01 338.091 1085.98 338.091H1305.18C1309.15 338.091 1312.37 335.174 1312.37 331.575C1312.37 327.976 1309.15 325.059 1305.18 325.059Z" fill="#00FF19"/>
<path d="M1246.77 381.199H1082.55C1076.7 381.199 1071.96 384.116 1071.96 387.715C1071.96 391.314 1076.7 394.232 1082.55 394.232H1246.77C1252.62 394.232 1257.37 391.314 1257.37 387.715C1257.37 384.116 1252.62 381.199 1246.77 381.199Z" fill="#6E07F3"/>
<path d="M1383.12 382.202H1284.61C1277.81 382.202 1272.3 385.119 1272.3 388.718C1272.3 392.317 1277.81 395.234 1284.61 395.234H1383.12C1389.92 395.234 1395.43 392.317 1395.43 388.718C1395.43 385.119 1389.92 382.202 1383.12 382.202Z" fill="#5BE9B9"/>
<path d="M1173.44 437.339H1049.63C1047.39 437.339 1045.57 440.257 1045.57 443.855C1045.57 447.454 1047.39 450.372 1049.63 450.372H1173.44C1175.68 450.372 1177.5 447.454 1177.5 443.855C1177.5 440.257 1175.68 437.339 1173.44 437.339Z" fill="#6E07F3"/>
<path d="M1045.18 493.479H1001.98C1000.15 493.479 998.66 496.397 998.66 499.996C998.66 503.594 1000.15 506.512 1001.98 506.512H1045.18C1047.01 506.512 1048.5 503.594 1048.5 499.996C1048.5 496.397 1047.01 493.479 1045.18 493.479Z" fill="#EBFF00"/>
<path opacity="0.54" d="M956.583 250.683H930.096C924.244 250.683 919.5 248.167 919.5 245.065C919.5 241.962 924.244 239.447 930.096 239.447H956.583C962.435 239.447 967.178 241.962 967.178 245.065C967.178 248.167 962.435 250.683 956.583 250.683Z" fill="#535B6B"/>
<path opacity="0.54" d="M956.583 531.574H930.096C924.244 531.574 919.5 529.059 919.5 525.956C919.5 522.854 924.244 520.339 930.096 520.339H956.583C962.435 520.339 967.178 522.854 967.178 525.956C967.178 529.059 962.435 531.574 956.583 531.574Z" fill="#535B6B"/>
<path fill-rule="evenodd" clip-rule="evenodd" d="M1238.93 538.592H1310.55C1316.41 538.592 1321.16 535.675 1321.16 532.076C1321.16 528.477 1316.41 525.559 1310.55 525.559H1238.93C1233.07 525.559 1228.32 528.477 1228.32 532.076C1228.32 535.675 1233.07 538.592 1238.93 538.592Z" fill="#5BE9B9"/>
<path fill-rule="evenodd" clip-rule="evenodd" d="M1051.28 538.592H1183.72C1189.57 538.592 1194.31 535.675 1194.31 532.076C1194.31 528.477 1189.57 525.559 1183.72 525.559H1051.28C1045.43 525.559 1040.68 528.477 1040.68 532.076C1040.68 535.675 1045.43 538.592 1051.28 538.592Z" fill="#6E07F3"/>
<path opacity="0.54" d="M956.583 475.396H930.096C924.244 475.396 919.5 472.881 919.5 469.778C919.5 466.675 924.244 464.16 930.096 464.16H956.583C962.435 464.16 967.178 466.675 967.178 469.778C967.178 472.881 962.435 475.396 956.583 475.396Z" fill="#535B6B"/>
<path opacity="0.54" d="M956.583 419.218H930.096C924.244 419.218 919.5 416.702 919.5 413.6C919.5 410.497 924.244 407.982 930.096 407.982H956.583C962.435 407.982 967.178 410.497 967.178 413.6C967.178 416.702 962.435 419.218 956.583 419.218Z" fill="#535B6B"/>
<path opacity="0.54" d="M956.583 363.039H930.096C924.244 363.039 919.5 360.524 919.5 357.421C919.5 354.319 924.244 351.804 930.096 351.804H956.583C962.435 351.804 967.178 354.319 967.178 357.421C967.178 360.524 962.435 363.039 956.583 363.039Z" fill="#535B6B"/>
<path opacity="0.54" d="M956.583 306.861H930.096C924.244 306.861 919.5 304.346 919.5 301.243C919.5 298.141 924.244 295.625 930.096 295.625H956.583C962.435 295.625 967.178 298.141 967.178 301.243C967.178 304.346 962.435 306.861 956.583 306.861Z" fill="#535B6B"/>
<path opacity="0.54" d="M956.583 194.504H930.096C924.244 194.504 919.5 191.989 919.5 188.887C919.5 185.784 924.244 183.269 930.096 183.269H956.583C962.435 183.269 967.178 185.784 967.178 188.887C967.178 191.989 962.435 194.504 956.583 194.504Z" fill="#535B6B"/>
<path opacity="0.54" d="M956.583 138.326H930.096C924.244 138.326 919.5 135.811 919.5 132.708C919.5 129.606 924.244 127.09 930.096 127.09H956.583C962.435 127.09 967.178 129.606 967.178 132.708C967.178 135.811 962.435 138.326 956.583 138.326Z" fill="#535B6B"/>
<path d="M1178.31 475.434H1084.83C1081.5 475.434 1078.8 472.517 1078.8 468.918C1078.8 465.319 1081.5 462.402 1084.83 462.402H1178.31C1181.64 462.402 1184.34 465.319 1184.34 468.918C1184.34 472.517 1181.64 475.434 1178.31 475.434Z" fill="#F30707"/>
<path d="M1381.59 473.429H1212.85C1209.52 473.429 1206.82 470.512 1206.82 466.913C1206.82 463.314 1209.52 460.397 1212.85 460.397H1381.59C1384.92 460.397 1387.62 463.314 1387.62 466.913C1387.62 470.512 1384.92 473.429 1381.59 473.429Z" fill="#00FF19"/>
<path d="M1677.04 475.396H1565.8C1559.94 475.396 1555.2 472.881 1555.2 469.778C1555.2 466.675 1559.94 464.16 1565.8 464.16H1677.04C1682.9 464.16 1687.64 466.675 1687.64 469.778C1687.64 472.881 1682.9 475.396 1677.04 475.396Z" fill="#6E07F3"/>
<path d="M1060.7 419.294H1004.05C1001.08 419.294 998.66 416.377 998.66 412.778C998.66 409.179 1001.08 406.261 1004.05 406.261H1060.7C1063.68 406.261 1066.09 409.179 1066.09 412.778C1066.09 416.377 1063.68 419.294 1060.7 419.294Z" fill="#EBFF00"/>
<path d="M1209.43 419.502H1098.19C1092.34 419.502 1087.59 416.585 1087.59 412.986C1087.59 409.387 1092.34 406.47 1098.19 406.47H1209.43C1215.29 406.47 1220.03 409.387 1220.03 412.986C1220.03 416.585 1215.29 419.502 1209.43 419.502Z" fill="#FF7A00"/>
<path d="M1140.82 504.715H1082.55C1076.7 504.715 1071.96 501.798 1071.96 498.199C1071.96 494.6 1076.7 491.682 1082.55 491.682H1140.82C1146.67 491.682 1151.42 494.6 1151.42 498.199C1151.42 501.798 1146.67 504.715 1140.82 504.715Z" fill="#6E07F3"/>
<path d="M1115.11 363.154H1051.28C1049.74 363.154 1048.5 360.236 1048.5 356.638C1048.5 353.039 1049.74 350.121 1051.28 350.121H1115.11C1116.64 350.121 1117.89 353.039 1117.89 356.638C1117.89 360.236 1116.64 363.154 1115.11 363.154Z" fill="#6E07F3"/>
<path d="M1416.35 363.154H1301.22C1297.12 363.154 1293.8 360.236 1293.8 356.638C1293.8 353.039 1297.12 350.121 1301.22 350.121H1416.35C1420.45 350.121 1423.77 353.039 1423.77 356.638C1423.77 360.236 1420.45 363.154 1416.35 363.154Z" fill="#FF7A00"/>
<path d="M1264.87 363.154H1149.75C1145.64 363.154 1142.32 360.236 1142.32 356.638C1142.32 353.039 1145.64 350.121 1149.75 350.121H1264.87C1268.97 350.121 1272.3 353.039 1272.3 356.638C1272.3 360.236 1268.97 363.154 1264.87 363.154Z" fill="#FF7A00"/>
<path d="M1256.62 307.014H1098.38C1094.58 307.014 1091.5 304.096 1091.5 300.497C1091.5 296.898 1094.58 293.981 1098.38 293.981H1256.62C1260.42 293.981 1263.5 296.898 1263.5 300.497C1263.5 304.096 1260.42 307.014 1256.62 307.014Z" fill="#F30707"/>
<path d="M1446.18 307.014H1294.85C1292.11 307.014 1289.89 304.096 1289.89 300.497C1289.89 296.898 1292.11 293.981 1294.85 293.981H1446.18C1448.92 293.981 1451.14 296.898 1451.14 300.497C1451.14 304.096 1448.92 307.014 1446.18 307.014Z" fill="#00FF19"/>
<path d="M1220.39 252.084H1056.16C1050.31 252.084 1045.57 249.167 1045.57 245.568C1045.57 241.969 1050.31 239.052 1056.16 239.052H1220.39C1226.24 239.052 1230.98 241.969 1230.98 245.568C1230.98 249.167 1226.24 252.084 1220.39 252.084Z" fill="#6E07F3"/>
<path d="M1414.62 250.874H1272.66C1267.6 250.874 1263.5 247.956 1263.5 244.357C1263.5 240.759 1267.6 237.841 1272.66 237.841H1414.62C1419.67 237.841 1423.77 240.759 1423.77 244.357C1423.77 247.956 1419.67 250.874 1414.62 250.874Z" fill="#5BE9B9"/>
<path d="M1061.6 138.593H1003.16C1000.67 138.593 998.66 135.676 998.66 132.077C998.66 128.478 1000.67 125.561 1003.16 125.561H1061.6C1064.08 125.561 1066.09 128.478 1066.09 132.077C1066.09 135.676 1064.08 138.593 1061.6 138.593Z" fill="#EBFF00"/>
<path d="M879.727 70.2512C884.085 70.2512 887.617 66.6604 887.617 62.2309C887.617 57.8015 884.085 54.2107 879.727 54.2107C875.37 54.2107 871.838 57.8015 871.838 62.2309C871.838 66.6604 875.37 70.2512 879.727 70.2512Z" fill="#A0522D"/>
<path d="M900.51 70.2512C904.867 70.2512 908.4 66.6604 908.4 62.2309C908.4 57.8015 904.867 54.2107 900.51 54.2107C896.153 54.2107 892.621 57.8015 892.621 62.2309C892.621 66.6604 896.153 70.2512 900.51 70.2512Z" fill="#708090"/>
<path d="M921.384 70.2512C925.741 70.2512 929.273 66.6604 929.273 62.2309C929.273 57.8015 925.741 54.2107 921.384 54.2107C917.027 54.2107 913.495 57.8015 913.495 62.2309C913.495 66.6604 917.027 70.2512 921.384 70.2512Z" fill="#4682B4"/>
<path d="M896.046 477.122H749.455C736.501 477.122 726 486.984 726 499.148V812.1C726 824.264 736.501 834.126 749.455 834.126H896.046C909 834.126 919.501 824.264 919.501 812.1V499.148C919.501 486.984 909 477.122 896.046 477.122Z" fill="white" stroke="black" stroke-width="7.80568"/>
<path fill-rule="evenodd" clip-rule="evenodd" d="M905.819 522.981C905.819 518.67 902.324 515.175 898.013 515.175H748.465C744.154 515.175 740.659 518.67 740.659 522.981V769.835C740.659 774.146 744.154 777.641 748.465 777.641H898.013C902.324 777.641 905.819 774.146 905.819 769.835V522.981Z" fill="#ADBFD2" stroke="black" stroke-width="7.80568"/>
<path d="M865.75 491.806H780.727C778.568 491.806 776.818 493.45 776.818 495.477C776.818 497.505 778.568 499.148 780.727 499.148H865.75C867.909 499.148 869.659 497.505 869.659 495.477C869.659 493.45 867.909 491.806 865.75 491.806Z" fill="black"/>
<path d="M834.282 805.125C834.282 799.347 829.294 794.663 823.141 794.663C816.988 794.663 812 799.347 812 805.125C812 810.903 816.988 815.587 823.141 815.587C829.294 815.587 834.282 810.903 834.282 805.125Z" fill="black"/>
<path d="M780.727 665.985C788.823 665.985 795.387 659.822 795.387 652.219C795.387 644.616 788.823 638.453 780.727 638.453C772.631 638.453 766.068 644.616 766.068 652.219C766.068 659.822 772.631 665.985 780.727 665.985Z" fill="#A0522D"/>
<path d="M879.432 628.357H818.841C816.682 628.357 814.932 630.001 814.932 632.028C814.932 634.056 816.682 635.699 818.841 635.699H879.432C881.591 635.699 883.341 634.056 883.341 632.028C883.341 630.001 881.591 628.357 879.432 628.357Z" fill="black"/>
<path d="M859.887 648.548H818.841C816.682 648.548 814.932 650.191 814.932 652.219C814.932 654.246 816.682 655.89 818.841 655.89H859.887C862.046 655.89 863.796 654.246 863.796 652.219C863.796 650.191 862.046 648.548 859.887 648.548Z" fill="black"/>
<path d="M840.341 668.738H818.841C816.682 668.738 814.932 670.382 814.932 672.409C814.932 674.437 816.682 676.08 818.841 676.08H840.341C842.5 676.08 844.25 674.437 844.25 672.409C844.25 670.382 842.5 668.738 840.341 668.738Z" fill="black"/>
<path d="M780.727 740.139C788.823 740.139 795.387 733.975 795.387 726.373C795.387 718.77 788.823 712.606 780.727 712.606C772.631 712.606 766.068 718.77 766.068 726.373C766.068 733.975 772.631 740.139 780.727 740.139Z" fill="#4682B4"/>
<path d="M879.432 702.511H818.841C816.682 702.511 814.932 704.155 814.932 706.182C814.932 708.21 816.682 709.853 818.841 709.853H879.432C881.591 709.853 883.341 708.21 883.341 706.182C883.341 704.155 881.591 702.511 879.432 702.511Z" fill="black"/>
<path d="M859.887 722.702H818.841C816.682 722.702 814.932 724.345 814.932 726.373C814.932 728.4 816.682 730.044 818.841 730.044H859.887C862.046 730.044 863.796 728.4 863.796 726.373C863.796 724.345 862.046 722.702 859.887 722.702Z" fill="black"/>
<path d="M840.341 742.892H818.841C816.682 742.892 814.932 744.536 814.932 746.563C814.932 748.59 816.682 750.234 818.841 750.234H840.341C842.5 750.234 844.25 748.59 844.25 746.563C844.25 744.536 842.5 742.892 840.341 742.892Z" fill="black"/>
<path d="M780.727 592.372C788.823 592.372 795.387 586.209 795.387 578.606C795.387 571.003 788.823 564.839 780.727 564.839C772.631 564.839 766.068 571.003 766.068 578.606C766.068 586.209 772.631 592.372 780.727 592.372Z" fill="#708090"/>
<path d="M879.432 554.744H818.841C816.682 554.744 814.932 556.388 814.932 558.415C814.932 560.443 816.682 562.086 818.841 562.086H879.432C881.591 562.086 883.341 560.443 883.341 558.415C883.341 556.388 881.591 554.744 879.432 554.744Z" fill="black"/>
<path d="M859.887 574.935H818.841C816.682 574.935 814.932 576.578 814.932 578.606C814.932 580.633 816.682 582.277 818.841 582.277H859.887C862.046 582.277 863.796 580.633 863.796 578.606C863.796 576.578 862.046 574.935 859.887 574.935Z" fill="black"/>
<path d="M840.341 595.125H818.841C816.682 595.125 814.932 596.769 814.932 598.796C814.932 600.824 816.682 602.467 818.841 602.467H840.341C842.5 602.467 844.25 600.824 844.25 598.796C844.25 596.769 842.5 595.125 840.341 595.125Z" fill="black"/>
<path fill-rule="evenodd" clip-rule="evenodd" d="M2245.67 343.141H1577.2C1569.64 343.141 1562.8 345.996 1557.85 350.612C1552.9 355.229 1549.84 361.607 1549.84 368.652V770.454C1549.84 777.495 1552.91 783.874 1557.86 788.492C1562.81 793.108 1569.65 795.965 1577.2 795.965H2245.67C2253.23 795.965 2260.07 793.11 2265.02 788.494C2269.97 783.877 2273.03 777.499 2273.03 770.454V368.652C2273.03 361.611 2269.96 355.232 2265.01 350.614C2260.06 345.997 2253.22 343.141 2245.67 343.141Z" fill="white" stroke="black" stroke-width="7.80568"/>
<path fill-rule="evenodd" clip-rule="evenodd" d="M2321.9 795.965H1500.97C1500.7 795.965 1500.46 796.067 1500.29 796.23C1500.11 796.395 1500 796.624 1500 796.876V815.099C1500 820.383 1502.3 825.166 1506.01 828.628C1509.73 832.091 1514.86 834.232 1520.53 834.232H2302.34C2308.01 834.232 2313.14 832.09 2316.86 828.628C2320.57 825.165 2322.87 820.382 2322.87 815.099V796.876C2322.87 796.624 2322.76 796.396 2322.58 796.231C2322.41 796.068 2322.17 795.965 2321.9 795.965Z" fill="white" stroke="black" stroke-width="7.80568"/>
<path fill-rule="evenodd" clip-rule="evenodd" d="M1965.47 796.374L1856.03 796.374C1857.94 801.053 1861.13 805.136 1865.22 808.245C1870.44 812.216 1877.1 814.596 1884.36 814.596H1937.14C1944.4 814.596 1951.06 812.215 1956.28 808.244C1960.36 805.134 1963.56 801.052 1965.47 796.374Z" fill="white" stroke="black" stroke-width="7.80568"/>
<g filter="url(#filter0_d_0_1)">
<path fill-rule="evenodd" clip-rule="evenodd" d="M2221.06 362.964H1602.79C1594.38 362.964 1586.76 364.777 1581.24 367.708C1575.73 370.638 1572.32 374.687 1572.32 379.16V401.017H2251.53V379.16C2251.53 374.689 2248.12 370.64 2242.6 367.708C2237.09 364.778 2229.47 362.964 2221.06 362.964Z" fill="#164D4D"/>
<path d="M1602.79 366.867H2221.06C2228.96 366.867 2235.92 368.579 2240.77 371.155C2245.79 373.822 2247.62 376.839 2247.62 379.16V397.114H1576.22V379.16C1576.22 376.837 1578.06 373.82 1583.08 371.154C1587.92 368.578 1594.88 366.867 1602.79 366.867Z" stroke="black" stroke-width="7.80568"/>
</g>
<g filter="url(#filter1_d_0_1)">
<path fill-rule="evenodd" clip-rule="evenodd" d="M901.968 512.248H744.51C742.367 512.248 740.427 513.549 739.023 515.653C737.618 517.757 736.75 520.664 736.75 523.875V539.568H909.728V523.875C909.728 520.665 908.859 517.758 907.455 515.654C906.05 513.55 904.11 512.248 901.968 512.248Z" fill="#164D4D"/>
<path d="M744.51 516.151H901.968C902.401 516.151 903.27 516.414 904.208 517.82C905.129 519.2 905.825 521.33 905.825 523.875V535.665H740.653V523.875C740.653 521.328 741.349 519.199 742.269 517.82C743.207 516.414 744.076 516.151 744.51 516.151Z" stroke="black" stroke-width="7.80568"/>
</g>
<path fill-rule="evenodd" clip-rule="evenodd" d="M2247.62 396.897H1911.92H1576.23V748.828C1576.23 755.808 1580.07 762.125 1586.28 766.698C1592.49 771.271 1601.07 774.098 1610.55 774.098H2213.3C2222.78 774.098 2231.36 771.271 2237.57 766.699C2243.78 762.126 2247.62 755.808 2247.62 748.828V396.897Z" fill="#708090" fill-opacity="0.5" stroke="black" stroke-width="7.80568"/>
<path d="M2034.57 687.135C2096.52 687.135 2146.75 642.407 2146.75 587.232C2146.75 532.057 2096.52 487.329 2034.57 487.329C1972.62 487.329 1922.4 532.057 1922.4 587.232C1922.4 642.407 1972.62 687.135 2034.57 687.135Z" stroke="black" stroke-width="7.80568"/>
<path d="M2034.57 687.135C2096.52 687.135 2146.75 642.407 2146.75 587.232C2146.75 532.057 2096.52 487.329 2034.57 487.329C1972.62 487.329 1922.4 532.057 1922.4 587.232C1922.4 642.407 1972.62 687.135 2034.57 687.135Z" stroke="black" stroke-opacity="0.2" stroke-width="7.80568"/>
<path fill-rule="evenodd" clip-rule="evenodd" d="M2070.73 656.653C2070.73 653.42 2068.11 650.799 2064.88 650.799H2003.29C2000.06 650.799 1997.44 653.42 1997.44 656.653V718.123C1997.44 721.356 2000.06 723.977 2003.29 723.977H2064.88C2068.11 723.977 2070.73 721.356 2070.73 718.123V656.653Z" fill="#A0522D"/>
<path fill-rule="evenodd" clip-rule="evenodd" d="M1985.92 527.329C1987.39 524.449 1986.24 520.926 1983.36 519.46L1928.49 491.546C1925.61 490.08 1922.08 491.226 1920.61 494.106L1892.66 548.88C1891.19 551.76 1892.33 555.283 1895.21 556.749L1950.09 584.662C1952.97 586.128 1956.49 584.982 1957.96 582.102L1985.92 527.329Z" fill="#4682B4"/>
<path fill-rule="evenodd" clip-rule="evenodd" d="M2152.1 497.666C2150.63 494.787 2147.1 493.64 2144.22 495.106L2089.35 523.02C2086.47 524.486 2085.32 528.009 2086.79 530.889L2114.75 585.662C2116.21 588.542 2119.74 589.688 2122.62 588.222L2177.5 560.309C2180.38 558.843 2181.52 555.32 2180.05 552.44L2152.1 497.666Z" fill="#708090"/>
<path d="M1773.47 462.497H1682.92C1669.87 462.497 1659.3 467.812 1659.3 474.367V519.871C1659.3 526.427 1669.87 531.742 1682.92 531.742H1773.47C1786.52 531.742 1797.09 526.427 1797.09 519.871V474.367C1797.09 467.812 1786.52 462.497 1773.47 462.497Z" fill="#708090" stroke="black" stroke-width="7.80568"/>
<path d="M1773.47 550.875H1682.92C1669.87 550.875 1659.3 556.19 1659.3 562.746V608.249C1659.3 614.805 1669.87 620.12 1682.92 620.12H1773.47C1786.52 620.12 1797.09 614.805 1797.09 608.249V562.746C1797.09 556.19 1786.52 550.875 1773.47 550.875Z" fill="#A0522D" stroke="black" stroke-width="7.80568"/>
<path d="M1773.47 639.253H1682.92C1669.87 639.253 1659.3 644.568 1659.3 651.124V696.628C1659.3 703.183 1669.87 708.498 1682.92 708.498H1773.47C1786.52 708.498 1797.09 703.183 1797.09 696.628V651.124C1797.09 644.568 1786.52 639.253 1773.47 639.253Z" fill="#4682B4" stroke="black" stroke-width="7.80568"/>
<path d="M1590.36 387.811C1593.3 387.811 1595.69 385.962 1595.69 383.681C1595.69 381.4 1593.3 379.551 1590.36 379.551C1587.41 379.551 1585.03 381.4 1585.03 383.681C1585.03 385.962 1587.41 387.811 1590.36 387.811Z" fill="#A0522D"/>
<path d="M1604.57 387.811C1607.51 387.811 1609.9 385.962 1609.9 383.681C1609.9 381.4 1607.51 379.551 1604.57 379.551C1601.63 379.551 1599.24 381.4 1599.24 383.681C1599.24 385.962 1601.63 387.811 1604.57 387.811Z" fill="#708090"/>
<path d="M1618.79 387.811C1621.73 387.811 1624.12 385.962 1624.12 383.681C1624.12 381.4 1621.73 379.551 1618.79 379.551C1615.84 379.551 1613.45 381.4 1613.45 383.681C1613.45 385.962 1615.84 387.811 1618.79 387.811Z" fill="#4682B4"/>
<path fill-rule="evenodd" clip-rule="evenodd" d="M2428.79 762.246C2408.13 762.246 2381.37 753.368 2382.79 801.82C2382.91 805.875 2355.45 815.22 2354.14 834.489L2508.06 832.091C2506.75 812.822 2513.11 777.629 2479.41 765.6C2458.04 757.975 2449.46 762.246 2428.79 762.246Z" fill="white" stroke="black" stroke-width="11.2309"/>
<path d="M2445.42 768.597C2445.42 765.674 2443.14 763.304 2440.33 763.304C2437.52 763.304 2435.24 765.674 2435.24 768.597V775.213C2435.24 778.136 2437.52 780.505 2440.33 780.505C2443.14 780.505 2445.42 778.136 2445.42 775.213V768.597Z" fill="black"/>
<path d="M2115.64 628.614C2116.07 626.402 2118.73 625.485 2120.43 626.963L2140.84 644.703C2142.54 646.181 2142 648.946 2139.87 649.68L2114.3 658.483C2112.17 659.217 2110.05 657.369 2110.48 655.157L2115.64 628.614Z" fill="black"/>
<path d="M1926.35 627.691C1925.96 625.472 1928.12 623.661 1930.24 624.432L1955.65 633.68C1957.76 634.451 1958.25 637.224 1956.53 638.673L1935.81 656.054C1934.09 657.502 1931.44 656.539 1931.05 654.32L1926.35 627.691Z" fill="black"/>
<path d="M2022.39 472.47C2022.59 470.225 2025.14 469.035 2026.99 470.327L2049.14 485.837C2050.98 487.129 2050.74 489.935 2048.7 490.887L2024.19 502.315C2022.15 503.267 2019.84 501.651 2020.04 499.407L2022.39 472.47Z" fill="black"/>
</g>
<defs>
<filter id="filter0_d_0_1" x="1568.42" y="362.964" width="687.012" height="45.8584" filterUnits="userSpaceOnUse" color-interpolation-filters="sRGB">
<feFlood flood-opacity="0" result="BackgroundImageFix"/>
<feColorMatrix in="SourceAlpha" type="matrix" values="0 0 0 0 0 0 0 0 0 0 0 0 0 0 0 0 0 0 127 0" result="hardAlpha"/>
<feOffset dy="3.90284"/>
<feGaussianBlur stdDeviation="1.95142"/>
<feComposite in2="hardAlpha" operator="out"/>
<feColorMatrix type="matrix" values="0 0 0 0 0 0 0 0 0 0 0 0 0 0 0 0 0 0 0.25 0"/>
<feBlend mode="normal" in2="BackgroundImageFix" result="effect1_dropShadow_0_1"/>
<feBlend mode="normal" in="SourceGraphic" in2="effect1_dropShadow_0_1" result="shape"/>
</filter>
<filter id="filter1_d_0_1" x="732.847" y="512.248" width="180.783" height="35.1256" filterUnits="userSpaceOnUse" color-interpolation-filters="sRGB">
<feFlood flood-opacity="0" result="BackgroundImageFix"/>
<feColorMatrix in="SourceAlpha" type="matrix" values="0 0 0 0 0 0 0 0 0 0 0 0 0 0 0 0 0 0 127 0" result="hardAlpha"/>
<feOffset dy="3.90284"/>
<feGaussianBlur stdDeviation="1.95142"/>
<feComposite in2="hardAlpha" operator="out"/>
<feColorMatrix type="matrix" values="0 0 0 0 0 0 0 0 0 0 0 0 0 0 0 0 0 0 0.25 0"/>
<feBlend mode="normal" in2="BackgroundImageFix" result="effect1_dropShadow_0_1"/>
<feBlend mode="normal" in="SourceGraphic" in2="effect1_dropShadow_0_1" result="shape"/>
</filter>
<clipPath id="clip0_0_1">
<rect width="1782.06" height="834.489" fill="white" transform="translate(726)"/>
</clipPath>
</defs>
</svg>
