<svg width="4096" height="2304" viewBox="0 0 4096 2304" fill="none" xmlns="http://www.w3.org/2000/svg">
<g id="hero-devices">
<rect width="4096" height="2304" fill="#636364"/>
<g id="Frame 2">
<g id="Group 10">
<g id="Group 9">
<g id="Assets">
<g id="devices">
<g id="imac">
<path id="imac-screen" fill-rule="evenodd" clip-rule="evenodd" d="M2329.2 452.182H893.287C881.883 452.182 871.562 457.004 864.092 464.8C856.619 472.598 851.999 483.372 851.999 495.272V1521.99C851.999 1533.88 856.621 1544.66 864.096 1552.46C871.567 1560.26 881.888 1565.08 893.287 1565.08H2329.2C2340.6 1565.08 2350.92 1560.26 2358.39 1552.46C2365.87 1544.66 2370.49 1533.89 2370.49 1521.99V495.272C2370.49 483.378 2365.87 472.604 2358.39 464.803C2350.92 457.007 2340.6 452.182 2329.2 452.182Z" fill="white" stroke="black" stroke-width="7.80568"/>
<path id="imac-stand" fill-rule="evenodd" clip-rule="evenodd" d="M1719.85 1566.63H1502.11L1487.41 1765.2H1734.55L1719.85 1566.63Z" fill="white" stroke="black" stroke-width="7.80568"/>
<path id="imac-base" fill-rule="evenodd" clip-rule="evenodd" d="M1825.01 1820.29H1398.95C1398.55 1820.29 1398.18 1820.08 1397.91 1819.73C1397.64 1819.38 1397.48 1818.89 1397.48 1818.36V1792.47C1397.48 1784.79 1399.87 1777.83 1403.74 1772.8C1407.61 1767.76 1412.96 1764.65 1418.86 1764.65H1805.1C1811 1764.65 1816.35 1767.77 1820.22 1772.8C1824.09 1777.84 1826.49 1784.79 1826.49 1792.47V1818.36C1826.49 1818.89 1826.32 1819.38 1826.05 1819.73C1825.79 1820.08 1825.42 1820.29 1825.01 1820.29Z" fill="white" stroke="black" stroke-width="7.80568"/>
<path id="imac-button" d="M1635.35 1465.8C1635.35 1479.53 1624.73 1490.37 1611.98 1490.37C1599.23 1490.37 1588.61 1479.53 1588.61 1465.8C1588.61 1452.06 1599.23 1441.22 1611.98 1441.22C1624.73 1441.22 1635.35 1452.06 1635.35 1465.8Z" stroke="black" stroke-width="7.80568"/>
<g id="imac-screen_2">
<g id="screen-body">
<path id="background" fill-rule="evenodd" clip-rule="evenodd" d="M2321.84 586.59H1612.72H903.598V1350.36C903.598 1360.06 910.715 1368.84 922.224 1375.19C933.74 1381.55 949.65 1385.48 967.224 1385.48H2258.21C2275.79 1385.48 2291.69 1381.55 2303.21 1375.19C2314.72 1368.84 2321.84 1360.06 2321.84 1350.36V1087.62V586.59Z" fill="#ADBFD2" stroke="black" stroke-width="7.80568"/>
<g id="code-blocks">
<path id="rect10" opacity="0.54" d="M1053.89 1091.86H1013.93C1005.11 1091.86 997.951 1096.08 997.951 1101.28C997.951 1106.49 1005.11 1110.71 1013.93 1110.71H1053.89C1062.72 1110.71 1069.87 1106.49 1069.87 1101.28C1069.87 1096.08 1062.72 1091.86 1053.89 1091.86Z" fill="#535B6B"/>
<path id="rect11" opacity="0.54" d="M1053.89 620.741H1013.93C1005.11 620.741 997.951 624.96 997.951 630.164C997.951 635.368 1005.11 639.586 1013.93 639.586H1053.89C1062.72 639.586 1069.87 635.368 1069.87 630.164C1069.87 624.96 1062.72 620.741 1053.89 620.741Z" fill="#535B6B"/>
<path id="path11" fill-rule="evenodd" clip-rule="evenodd" d="M1133.81 620.741H1241.69C1250.52 620.741 1257.67 625.634 1257.67 631.671C1257.67 637.707 1250.52 642.6 1241.69 642.6H1133.81C1124.98 642.6 1117.82 637.707 1117.82 631.671C1117.82 625.634 1124.98 620.741 1133.81 620.741Z" fill="#6E07F3"/>
<path id="path12" fill-rule="evenodd" clip-rule="evenodd" d="M1313.62 620.741H1421.5C1430.33 620.741 1437.48 625.634 1437.48 631.671C1437.48 637.707 1430.33 642.6 1421.5 642.6H1313.62C1304.79 642.6 1297.63 637.707 1297.63 631.671C1297.63 625.634 1304.79 620.741 1313.62 620.741Z" fill="#5BE9B9"/>
<path id="path13" fill-rule="evenodd" clip-rule="evenodd" d="M1453.26 760.3H1653.05C1661.88 760.3 1669.03 765.194 1669.03 771.23C1669.03 777.266 1661.88 782.159 1653.05 782.159H1453.26C1444.44 782.159 1437.28 777.266 1437.28 771.23C1437.28 765.194 1444.44 760.3 1453.26 760.3Z" fill="#6E07F3"/>
<path id="path14" fill-rule="evenodd" clip-rule="evenodd" d="M1504.16 620.741H1705.06C1711.05 620.741 1715.92 625.634 1715.92 631.671C1715.92 637.707 1711.05 642.6 1705.06 642.6H1504.16C1498.16 642.6 1493.3 637.707 1493.3 631.671C1493.3 625.634 1498.16 620.741 1504.16 620.741Z" fill="#FF7A00"/>
<path id="rect14" opacity="0.54" d="M1053.89 714.965H1013.93C1005.11 714.965 997.951 719.184 997.951 724.388C997.951 729.592 1005.11 733.81 1013.93 733.81H1053.89C1062.72 733.81 1069.87 729.592 1069.87 724.388C1069.87 719.184 1062.72 714.965 1053.89 714.965Z" fill="#535B6B"/>
<path id="rect15" opacity="0.54" d="M1053.89 809.19H1013.93C1005.11 809.19 997.951 813.409 997.951 818.612C997.951 823.816 1005.11 828.035 1013.93 828.035H1053.89C1062.72 828.035 1069.87 823.816 1069.87 818.612C1069.87 813.409 1062.72 809.19 1053.89 809.19Z" fill="#535B6B"/>
<path id="rect16" opacity="0.54" d="M1053.89 903.414H1013.93C1005.11 903.414 997.951 907.633 997.951 912.836C997.951 918.04 1005.11 922.259 1013.93 922.259H1053.89C1062.72 922.259 1069.87 918.04 1069.87 912.836C1069.87 907.633 1062.72 903.414 1053.89 903.414Z" fill="#535B6B"/>
<path id="rect17" opacity="0.54" d="M1053.89 997.638H1013.93C1005.11 997.638 997.951 1001.86 997.951 1007.06C997.951 1012.26 1005.11 1016.48 1013.93 1016.48H1053.89C1062.72 1016.48 1069.87 1012.26 1069.87 1007.06C1069.87 1001.86 1062.72 997.638 1053.89 997.638Z" fill="#535B6B"/>
<path id="rect18" opacity="0.54" d="M1053.89 1186.09H1013.93C1005.11 1186.09 997.951 1190.31 997.951 1195.51C997.951 1200.71 1005.11 1204.93 1013.93 1204.93H1053.89C1062.72 1204.93 1069.87 1200.71 1069.87 1195.51C1069.87 1190.31 1062.72 1186.09 1053.89 1186.09Z" fill="#535B6B"/>
<path id="rect19" opacity="0.54" d="M1053.89 1280.31H1013.93C1005.11 1280.31 997.951 1284.53 997.951 1289.73C997.951 1294.94 1005.11 1299.16 1013.93 1299.16H1053.89C1062.72 1299.16 1069.87 1294.94 1069.87 1289.73C1069.87 1284.53 1062.72 1280.31 1053.89 1280.31Z" fill="#535B6B"/>
<path id="rect20" d="M1385.05 760.3H1261C1256.58 760.3 1253 765.194 1253 771.23C1253 777.266 1256.58 782.159 1261 782.159H1385.05C1389.47 782.159 1393.05 777.266 1393.05 771.23C1393.05 765.194 1389.47 760.3 1385.05 760.3Z" fill="#F30707"/>
<path id="rect21" d="M1485.69 666.14H1272.41C1268.2 666.14 1264.79 671.033 1264.79 677.069C1264.79 683.106 1268.2 687.999 1272.41 687.999H1485.69C1489.89 687.999 1493.3 683.106 1493.3 677.069C1493.3 671.033 1489.89 666.14 1485.69 666.14Z" fill="#00FF19"/>
<path id="rect22" d="M1351.3 714.901H1183.47C1174.65 714.901 1167.49 719.795 1167.49 725.831C1167.49 731.867 1174.65 736.76 1183.47 736.76H1351.3C1360.12 736.76 1367.28 731.867 1367.28 725.831C1367.28 719.795 1360.12 714.901 1351.3 714.901Z" fill="#6E07F3"/>
<path id="rect23" d="M1240.79 809.062H1128.1C1122.17 809.062 1117.37 813.955 1117.37 819.991C1117.37 826.027 1122.17 830.92 1128.1 830.92H1240.79C1246.72 830.92 1251.52 826.027 1251.52 819.991C1251.52 813.955 1246.72 809.062 1240.79 809.062Z" fill="#EBFF00"/>
<path id="rect24" d="M1476.61 809.062H1308.79C1299.96 809.062 1292.8 813.955 1292.8 819.991C1292.8 826.027 1299.96 830.92 1308.79 830.92H1476.61C1485.44 830.92 1492.59 826.027 1492.59 819.991C1492.59 813.955 1485.44 809.062 1476.61 809.062Z" fill="#6E07F3"/>
<path id="rect26" d="M1571.38 906.867H1264.85C1257.49 906.867 1251.52 911.76 1251.52 917.797C1251.52 923.833 1257.49 928.726 1264.85 928.726H1571.38C1578.74 928.726 1584.71 923.833 1584.71 917.797C1584.71 911.76 1578.74 906.867 1571.38 906.867Z" fill="#6E07F3"/>
<path id="rect27" d="M1836.3 903.222H1645.66C1638.86 903.222 1633.36 908.115 1633.36 914.151C1633.36 920.187 1638.86 925.081 1645.66 925.081H1836.3C1843.09 925.081 1848.6 920.187 1848.6 914.151C1848.6 908.115 1843.09 903.222 1836.3 903.222Z" fill="#FF7A00"/>
<path id="rect28" d="M1189.55 997.382H1120.37C1118.71 997.382 1117.37 1002.28 1117.37 1008.31C1117.37 1014.35 1118.71 1019.24 1120.37 1019.24H1189.55C1191.21 1019.24 1192.55 1014.35 1192.55 1008.31C1192.55 1002.28 1191.21 997.382 1189.55 997.382Z" fill="#EBFF00"/>
<path id="rect29" d="M1579.76 997.382H1249.1C1243.11 997.382 1238.26 1002.28 1238.26 1008.31C1238.26 1014.35 1243.11 1019.24 1249.1 1019.24H1579.76C1585.75 1019.24 1590.6 1014.35 1590.6 1008.31C1590.6 1002.28 1585.75 997.382 1579.76 997.382Z" fill="#00FF19"/>
<path id="rect30" d="M1491.66 1091.54H1243.92C1235.09 1091.54 1227.94 1096.44 1227.94 1102.47C1227.94 1108.51 1235.09 1113.4 1243.92 1113.4H1491.66C1500.48 1113.4 1507.64 1108.51 1507.64 1102.47C1507.64 1096.44 1500.48 1091.54 1491.66 1091.54Z" fill="#6E07F3"/>
<path id="rect32" d="M1697.34 1093.22H1548.73C1538.48 1093.22 1530.16 1098.12 1530.16 1104.15C1530.16 1110.19 1538.48 1115.08 1548.73 1115.08H1697.34C1707.6 1115.08 1715.92 1110.19 1715.92 1104.15C1715.92 1098.12 1707.6 1093.22 1697.34 1093.22Z" fill="#5BE9B9"/>
<path id="rect33" d="M1381.03 1195.42H1194.25C1190.87 1195.42 1188.13 1200.32 1188.13 1206.35C1188.13 1212.39 1190.87 1217.28 1194.25 1217.28H1381.03C1384.41 1217.28 1387.16 1212.39 1387.16 1206.35C1387.16 1200.32 1384.41 1195.42 1381.03 1195.42Z" fill="#6E07F3"/>
<path id="rect34" d="M1187.54 1279.86H1122.38C1119.61 1279.86 1117.37 1284.76 1117.37 1290.79C1117.37 1296.83 1119.61 1301.72 1122.38 1301.72H1187.54C1190.31 1301.72 1192.55 1296.83 1192.55 1290.79C1192.55 1284.76 1190.31 1279.86 1187.54 1279.86Z" fill="#EBFF00"/>
<path id="rect10_2" opacity="0.54" d="M1053.89 872.636H1013.93C1005.11 872.636 997.951 868.418 997.951 863.214C997.951 858.01 1005.11 853.791 1013.93 853.791H1053.89C1062.72 853.791 1069.87 858.01 1069.87 863.214C1069.87 868.418 1062.72 872.636 1053.89 872.636Z" fill="#535B6B"/>
<path id="rect11_2" opacity="0.54" d="M1053.89 1343.76H1013.93C1005.11 1343.76 997.951 1339.54 997.951 1334.33C997.951 1329.13 1005.11 1324.91 1013.93 1324.91H1053.89C1062.72 1324.91 1069.87 1329.13 1069.87 1334.33C1069.87 1339.54 1062.72 1343.76 1053.89 1343.76Z" fill="#535B6B"/>
<path id="path12_2" fill-rule="evenodd" clip-rule="evenodd" d="M1479.82 1355.53H1587.87C1596.71 1355.53 1603.87 1350.63 1603.87 1344.6C1603.87 1338.56 1596.71 1333.67 1587.87 1333.67H1479.82C1470.98 1333.67 1463.82 1338.56 1463.82 1344.6C1463.82 1350.63 1470.98 1355.53 1479.82 1355.53Z" fill="#5BE9B9"/>
<path id="path13_2" fill-rule="evenodd" clip-rule="evenodd" d="M1196.74 1355.53H1396.53C1405.36 1355.53 1412.51 1350.63 1412.51 1344.6C1412.51 1338.56 1405.36 1333.67 1396.53 1333.67H1196.74C1187.91 1333.67 1180.76 1338.56 1180.76 1344.6C1180.76 1350.63 1187.91 1355.53 1196.74 1355.53Z" fill="#6E07F3"/>
<path id="rect14_2" opacity="0.54" d="M1053.89 1249.53H1013.93C1005.11 1249.53 997.951 1245.31 997.951 1240.11C997.951 1234.91 1005.11 1230.69 1013.93 1230.69H1053.89C1062.72 1230.69 1069.87 1234.91 1069.87 1240.11C1069.87 1245.31 1062.72 1249.53 1053.89 1249.53Z" fill="#535B6B"/>
<path id="rect15_2" opacity="0.54" d="M1053.89 1155.31H1013.93C1005.11 1155.31 997.951 1151.09 997.951 1145.89C997.951 1140.68 1005.11 1136.46 1013.93 1136.46H1053.89C1062.72 1136.46 1069.87 1140.68 1069.87 1145.89C1069.87 1151.09 1062.72 1155.31 1053.89 1155.31Z" fill="#535B6B"/>
<path id="rect16_2" opacity="0.54" d="M1053.89 1061.08H1013.93C1005.11 1061.08 997.951 1056.87 997.951 1051.66C997.951 1046.46 1005.11 1042.24 1013.93 1042.24H1053.89C1062.72 1042.24 1069.87 1046.46 1069.87 1051.66C1069.87 1056.87 1062.72 1061.08 1053.89 1061.08Z" fill="#535B6B"/>
<path id="rect17_2" opacity="0.54" d="M1053.89 966.86H1013.93C1005.11 966.86 997.951 962.642 997.951 957.438C997.951 952.234 1005.11 948.015 1013.93 948.015H1053.89C1062.72 948.015 1069.87 952.234 1069.87 957.438C1069.87 962.642 1062.72 966.86 1053.89 966.86Z" fill="#535B6B"/>
<path id="rect18_2" opacity="0.54" d="M1053.89 778.412H1013.93C1005.11 778.412 997.951 774.193 997.951 768.989C997.951 763.785 1005.11 759.567 1013.93 759.567H1053.89C1062.72 759.567 1069.87 763.785 1069.87 768.989C1069.87 774.193 1062.72 778.412 1053.89 778.412Z" fill="#535B6B"/>
<path id="rect19_2" opacity="0.54" d="M1053.89 684.188H1013.93C1005.11 684.188 997.951 679.969 997.951 674.765C997.951 669.561 1005.11 665.343 1013.93 665.343H1053.89C1062.72 665.343 1069.87 669.561 1069.87 674.765C1069.87 679.969 1062.72 684.188 1053.89 684.188Z" fill="#535B6B"/>
<path id="rect20_2" d="M1388.38 1249.6H1247.35C1242.33 1249.6 1238.26 1244.7 1238.26 1238.67C1238.26 1232.63 1242.33 1227.74 1247.35 1227.74H1388.38C1393.4 1227.74 1397.48 1232.63 1397.48 1238.67C1397.48 1244.7 1393.4 1249.6 1388.38 1249.6Z" fill="#F30707"/>
<path id="rect21_2" d="M1695.03 1246.23H1440.48C1435.45 1246.23 1431.38 1241.34 1431.38 1235.31C1431.38 1229.27 1435.45 1224.38 1440.48 1224.38H1695.03C1700.05 1224.38 1704.12 1229.27 1704.12 1235.31C1704.12 1241.34 1700.05 1246.23 1695.03 1246.23Z" fill="#00FF19"/>
<path id="rect23_2" d="M1210.95 1155.44H1125.5C1121.01 1155.44 1117.37 1150.54 1117.37 1144.51C1117.37 1138.47 1121.01 1133.58 1125.5 1133.58H1210.95C1215.45 1133.58 1219.09 1138.47 1219.09 1144.51C1219.09 1150.54 1215.45 1155.44 1210.95 1155.44Z" fill="#EBFF00"/>
<path id="rect24_2" d="M1435.33 1155.79H1267.51C1258.68 1155.79 1251.52 1150.89 1251.52 1144.86C1251.52 1138.82 1258.68 1133.93 1267.51 1133.93H1435.33C1444.16 1133.93 1451.31 1138.82 1451.31 1144.86C1451.31 1150.89 1444.16 1155.79 1435.33 1155.79Z" fill="#FF7A00"/>
<path id="rect25" d="M1331.83 1298.71H1243.92C1235.09 1298.71 1227.94 1293.82 1227.94 1287.78C1227.94 1281.74 1235.09 1276.85 1243.92 1276.85H1331.83C1340.65 1276.85 1347.81 1281.74 1347.81 1287.78C1347.81 1293.82 1340.65 1298.71 1331.83 1298.71Z" fill="#6E07F3"/>
<path id="rect26_2" d="M1293.04 1061.28H1196.74C1194.43 1061.28 1192.55 1056.38 1192.55 1050.35C1192.55 1044.31 1194.43 1039.42 1196.74 1039.42H1293.04C1295.35 1039.42 1297.23 1044.31 1297.23 1050.35C1297.23 1056.38 1295.35 1061.28 1293.04 1061.28Z" fill="#6E07F3"/>
<path id="rect27_2" d="M1747.47 1061.28H1573.8C1567.61 1061.28 1562.59 1056.38 1562.59 1050.35C1562.59 1044.31 1567.61 1039.42 1573.8 1039.42H1747.47C1753.65 1039.42 1758.67 1044.31 1758.67 1050.35C1758.67 1056.38 1753.65 1061.28 1747.47 1061.28Z" fill="#FF7A00"/>
<path id="rect27_3" d="M1518.95 1061.28H1345.29C1339.1 1061.28 1334.08 1056.38 1334.08 1050.35C1334.08 1044.31 1339.1 1039.42 1345.29 1039.42H1518.95C1525.14 1039.42 1530.16 1044.31 1530.16 1050.35C1530.16 1056.38 1525.14 1061.28 1518.95 1061.28Z" fill="#FF7A00"/>
<path id="rect28_2" d="M1506.51 967.116H1267.8C1262.07 967.116 1257.42 962.223 1257.42 956.187C1257.42 950.151 1262.07 945.258 1267.8 945.258H1506.51C1512.24 945.258 1516.89 950.151 1516.89 956.187C1516.89 962.223 1512.24 967.116 1506.51 967.116Z" fill="#F30707"/>
<path id="rect29_2" d="M1792.46 967.116H1564.18C1560.05 967.116 1556.7 962.223 1556.7 956.187C1556.7 950.151 1560.05 945.258 1564.18 945.258H1792.46C1796.6 945.258 1799.95 950.151 1799.95 956.187C1799.95 962.223 1796.6 967.116 1792.46 967.116Z" fill="#00FF19"/>
<path id="rect30_2" d="M1451.85 874.987H1204.11C1195.29 874.987 1188.13 870.094 1188.13 864.057C1188.13 858.021 1195.29 853.128 1204.11 853.128H1451.85C1460.68 853.128 1467.83 858.021 1467.83 864.057C1467.83 870.094 1460.68 874.987 1451.85 874.987Z" fill="#6E07F3"/>
<path id="rect31" d="M1744.85 872.957H1530.71C1523.08 872.957 1516.89 868.063 1516.89 862.027C1516.89 855.991 1523.08 851.098 1530.71 851.098H1744.85C1752.48 851.098 1758.67 855.991 1758.67 862.027C1758.67 868.063 1752.48 872.957 1744.85 872.957Z" fill="#5BE9B9"/>
<path id="rect34_2" d="M1212.31 684.636H1124.15C1120.4 684.636 1117.37 679.743 1117.37 673.706C1117.37 667.67 1120.4 662.777 1124.15 662.777H1212.31C1216.05 662.777 1219.09 667.67 1219.09 673.706C1219.09 679.743 1216.05 684.636 1212.31 684.636Z" fill="#EBFF00"/>
</g>
</g>
<path id="header" fill-rule="evenodd" clip-rule="evenodd" d="M2258.21 509.459H967.224C949.652 509.459 933.745 513.591 922.232 520.271C910.718 526.952 903.598 536.181 903.598 546.375V596.194H2321.84V546.375C2321.84 536.184 2314.72 526.954 2303.2 520.273C2291.69 513.593 2275.78 509.459 2258.21 509.459Z" fill="#164D4D" stroke="black" stroke-width="7.80568"/>
<g id="window-buttons">
<path id="Oval-5" d="M937.951 570.01C944.524 570.01 949.853 563.987 949.853 556.558C949.853 549.129 944.524 543.106 937.951 543.106C931.378 543.106 926.05 549.129 926.05 556.558C926.05 563.987 931.378 570.01 937.951 570.01Z" fill="#A0522D"/>
<path id="ellipse77" d="M969.303 570.01C975.876 570.01 981.204 563.987 981.204 556.558C981.204 549.129 975.876 543.106 969.303 543.106C962.73 543.106 957.402 549.129 957.402 556.558C957.402 563.987 962.73 570.01 969.303 570.01Z" fill="#708090"/>
<path id="ellipse78" d="M1000.79 570.01C1007.36 570.01 1012.69 563.987 1012.69 556.558C1012.69 549.129 1007.36 543.106 1000.79 543.106C994.219 543.106 988.89 549.129 988.89 556.558C988.89 563.987 994.219 570.01 1000.79 570.01Z" fill="#4682B4"/>
</g>
</g>
</g>
<g id="phone">
<path id="rect2" d="M962.568 1252.43H741.429C721.888 1252.43 706.047 1268.97 706.047 1289.37V1814.26C706.047 1834.67 721.888 1851.21 741.429 1851.21H962.568C982.109 1851.21 997.951 1834.67 997.951 1814.26V1289.37C997.951 1268.97 982.109 1252.43 962.568 1252.43Z" fill="white" stroke="black" stroke-width="7.80568"/>
<path id="path3" fill-rule="evenodd" clip-rule="evenodd" d="M977.311 1324.06C977.311 1319.75 973.816 1316.25 969.505 1316.25H735.966C731.655 1316.25 728.161 1319.75 728.161 1324.06V1748.66C728.161 1752.97 731.655 1756.47 735.966 1756.47H969.505C973.816 1756.47 977.311 1752.97 977.311 1748.66V1324.06Z" fill="#ADBFD2" stroke="black" stroke-width="7.80568"/>
<path id="Rectangle-11" d="M916.866 1277.06H788.606C785.349 1277.06 782.708 1279.81 782.708 1283.21C782.708 1286.61 785.349 1289.37 788.606 1289.37H916.866C920.123 1289.37 922.763 1286.61 922.763 1283.21C922.763 1279.81 920.123 1277.06 916.866 1277.06Z" fill="black"/>
<path id="rect3" d="M869.395 1802.57C869.395 1792.87 861.871 1785.02 852.589 1785.02C843.307 1785.02 835.782 1792.87 835.782 1802.57C835.782 1812.26 843.307 1820.11 852.589 1820.11C861.871 1820.11 869.395 1812.26 869.395 1802.57Z" fill="black"/>
<g id="Group 5">
<path id="circle3" d="M788.606 1569.2C800.819 1569.2 810.72 1558.86 810.72 1546.11C810.72 1533.35 800.819 1523.02 788.606 1523.02C776.392 1523.02 766.492 1533.35 766.492 1546.11C766.492 1558.86 776.392 1569.2 788.606 1569.2Z" fill="#A0522D"/>
<g id="Group-73">
<path id="rect4" d="M937.506 1506.09H846.102C842.845 1506.09 840.205 1508.84 840.205 1512.24C840.205 1515.64 842.845 1518.4 846.102 1518.4H937.506C940.763 1518.4 943.403 1515.64 943.403 1512.24C943.403 1508.84 940.763 1506.09 937.506 1506.09Z" fill="black"/>
<path id="rect5" d="M908.021 1539.95H846.102C842.845 1539.95 840.205 1542.71 840.205 1546.11C840.205 1549.51 842.845 1552.26 846.102 1552.26H908.021C911.278 1552.26 913.918 1549.51 913.918 1546.11C913.918 1542.71 911.278 1539.95 908.021 1539.95Z" fill="black"/>
<path id="rect6" d="M878.535 1573.81H846.102C842.845 1573.81 840.205 1576.57 840.205 1579.97C840.205 1583.37 842.845 1586.13 846.102 1586.13H878.535C881.792 1586.13 884.432 1583.37 884.432 1579.97C884.432 1576.57 881.792 1573.81 878.535 1573.81Z" fill="black"/>
</g>
</g>
<g id="Group 4">
<path id="circle3_2" d="M788.606 1693.57C800.819 1693.57 810.72 1683.23 810.72 1670.48C810.72 1657.73 800.819 1647.39 788.606 1647.39C776.392 1647.39 766.492 1657.73 766.492 1670.48C766.492 1683.23 776.392 1693.57 788.606 1693.57Z" fill="#4682B4"/>
<g id="Group-73_2">
<path id="rect4_2" d="M937.506 1630.46H846.102C842.845 1630.46 840.205 1633.22 840.205 1636.62C840.205 1640.02 842.845 1642.77 846.102 1642.77H937.506C940.763 1642.77 943.403 1640.02 943.403 1636.62C943.403 1633.22 940.763 1630.46 937.506 1630.46Z" fill="black"/>
<path id="rect5_2" d="M908.021 1664.32H846.102C842.845 1664.32 840.205 1667.08 840.205 1670.48C840.205 1673.88 842.845 1676.64 846.102 1676.64H908.021C911.278 1676.64 913.918 1673.88 913.918 1670.48C913.918 1667.08 911.278 1664.32 908.021 1664.32Z" fill="black"/>
<path id="rect6_2" d="M878.535 1698.19H846.102C842.845 1698.19 840.205 1700.94 840.205 1704.34C840.205 1707.74 842.845 1710.5 846.102 1710.5H878.535C881.792 1710.5 884.432 1707.74 884.432 1704.34C884.432 1700.94 881.792 1698.19 878.535 1698.19Z" fill="black"/>
</g>
</g>
<g id="Group 6">
<path id="circle3_3" d="M788.606 1445.73C800.819 1445.73 810.72 1435.39 810.72 1422.64C810.72 1409.89 800.819 1399.55 788.606 1399.55C776.392 1399.55 766.492 1409.89 766.492 1422.64C766.492 1435.39 776.392 1445.73 788.606 1445.73Z" fill="#708090"/>
<g id="Group-73_3">
<path id="rect4_3" d="M937.506 1382.62H846.102C842.845 1382.62 840.205 1385.38 840.205 1388.78C840.205 1392.18 842.845 1394.93 846.102 1394.93H937.506C940.763 1394.93 943.403 1392.18 943.403 1388.78C943.403 1385.38 940.763 1382.62 937.506 1382.62Z" fill="black"/>
<path id="rect5_3" d="M908.021 1416.48H846.102C842.845 1416.48 840.205 1419.24 840.205 1422.64C840.205 1426.04 842.845 1428.8 846.102 1428.8H908.021C911.278 1428.8 913.918 1426.04 913.918 1422.64C913.918 1419.24 911.278 1416.48 908.021 1416.48Z" fill="black"/>
<path id="rect6_3" d="M878.535 1450.35H846.102C842.845 1450.35 840.205 1453.1 840.205 1456.5C840.205 1459.9 842.845 1462.66 846.102 1462.66H878.535C881.792 1462.66 884.432 1459.9 884.432 1456.5C884.432 1453.1 881.792 1450.35 878.535 1450.35Z" fill="black"/>
</g>
</g>
<g id="path9" filter="url(#filter0_d_1_122)">
<path fill-rule="evenodd" clip-rule="evenodd" d="M971.501 1311.34H733.97C730.737 1311.34 727.811 1313.52 725.692 1317.05C723.574 1320.58 722.264 1325.46 722.264 1330.84V1357.16H983.208V1330.84C983.208 1325.46 981.897 1320.58 979.779 1317.06C977.66 1313.53 974.734 1311.34 971.501 1311.34Z" fill="#164D4D"/>
<path d="M733.97 1315.25H971.501C972.825 1315.25 974.689 1316.16 976.432 1319.06C978.129 1321.89 979.305 1326.05 979.305 1330.84V1353.26H726.167V1330.84C726.167 1326.04 727.342 1321.89 729.038 1319.06C730.781 1316.16 732.646 1315.25 733.97 1315.25Z" stroke="black" stroke-width="7.80568"/>
</g>
</g>
<g id="mouse">
<path id="path43" fill-rule="evenodd" clip-rule="evenodd" d="M3274.78 1730.65C3243.61 1730.65 3203.25 1715.76 3205.39 1797.02C3205.57 1803.82 3164.14 1819.5 3162.17 1851.82L3390.64 1850.3C3388.67 1817.98 3401.98 1756.45 3351.14 1736.27C3318.91 1723.49 3305.96 1730.65 3274.78 1730.65Z" fill="white" stroke="black" stroke-width="11.2309"/>
<path id="rect43" d="M3299.87 1741.3C3299.87 1736.4 3296.43 1732.42 3292.18 1732.42C3287.94 1732.42 3284.5 1736.4 3284.5 1741.3V1752.4C3284.5 1757.3 3287.94 1761.27 3292.18 1761.27C3296.43 1761.27 3299.87 1757.3 3299.87 1752.4V1741.3Z" fill="black"/>
</g>
<g id="macbook">
<path id="bezel" fill-rule="evenodd" clip-rule="evenodd" d="M2998.54 1027.71H1990.11C1978.72 1027.71 1968.4 1032.5 1960.93 1040.24C1953.47 1047.98 1948.85 1058.68 1948.85 1070.5V1744.42C1948.85 1756.22 1953.47 1766.92 1960.94 1774.67C1968.41 1782.41 1978.72 1787.2 1990.11 1787.2H2998.54C3009.93 1787.2 3020.25 1782.41 3027.72 1774.67C3035.18 1766.93 3039.8 1756.23 3039.8 1744.42V1070.5C3039.8 1058.69 3035.18 1047.99 3027.71 1040.24C3020.24 1032.5 3009.93 1027.71 2998.54 1027.71Z" fill="white" stroke="black" stroke-width="7.80568"/>
<path id="keyboard" fill-rule="evenodd" clip-rule="evenodd" d="M3113.53 1787.2H1875.12C1874.72 1787.2 1874.36 1787.37 1874.09 1787.65C1873.83 1787.92 1873.66 1788.31 1873.66 1788.73V1819.29C1873.66 1828.16 1877.13 1836.18 1882.73 1841.99C1888.34 1847.79 1896.08 1851.39 1904.63 1851.39H3084.02C3092.57 1851.39 3100.32 1847.79 3105.92 1841.99C3111.52 1836.18 3114.99 1828.16 3114.99 1819.29V1788.73C3114.99 1788.31 3114.82 1787.93 3114.56 1787.65C3114.29 1787.38 3113.93 1787.2 3113.53 1787.2Z" fill="white" stroke="black" stroke-width="7.80568"/>
<path id="notch" fill-rule="evenodd" clip-rule="evenodd" d="M2575.84 1787.89L2410.75 1787.89C2413.62 1795.74 2418.45 1802.58 2424.61 1807.8C2432.48 1814.46 2442.53 1818.45 2453.48 1818.45H2533.1C2544.05 1818.45 2554.1 1814.46 2561.97 1807.8C2568.14 1802.58 2572.96 1795.73 2575.84 1787.89Z" fill="white" stroke="black" stroke-width="7.80568"/>
<g id="header_2">
<g id="header_3" filter="url(#filter1_d_1_122)">
<path fill-rule="evenodd" clip-rule="evenodd" d="M2961.4 1060.96H2028.72C2016.03 1060.96 2004.54 1064 1996.22 1068.91C1987.9 1073.83 1982.76 1080.62 1982.76 1088.12V1124.78H3007.37V1088.12C3007.37 1080.62 3002.22 1073.83 2993.9 1068.92C2985.59 1064 2974.09 1060.96 2961.4 1060.96Z" fill="#164D4D"/>
<path d="M2028.72 1064.86H2961.4C2973.52 1064.86 2984.3 1067.77 2991.92 1072.28C2999.63 1076.83 3003.47 1082.56 3003.47 1088.12V1120.88H1986.66V1088.12C1986.66 1082.56 1990.5 1076.83 1998.2 1072.27C2005.82 1067.77 2016.6 1064.86 2028.72 1064.86Z" stroke="black" stroke-width="7.80568"/>
</g>
<g id="buttons">
<path id="Oval-5_2" d="M2009.96 1102.63C2014.4 1102.63 2018 1099.53 2018 1095.71C2018 1091.88 2014.4 1088.78 2009.96 1088.78C2005.52 1088.78 2001.92 1091.88 2001.92 1095.71C2001.92 1099.53 2005.52 1102.63 2009.96 1102.63Z" fill="#A0522D"/>
<path id="ellipse77_2" d="M2031.41 1102.63C2035.85 1102.63 2039.45 1099.53 2039.45 1095.71C2039.45 1091.88 2035.85 1088.78 2031.41 1088.78C2026.97 1088.78 2023.37 1091.88 2023.37 1095.71C2023.37 1099.53 2026.97 1102.63 2031.41 1102.63Z" fill="#708090"/>
<path id="ellipse78_2" d="M2052.85 1102.63C2057.29 1102.63 2060.89 1099.53 2060.89 1095.71C2060.89 1091.88 2057.29 1088.78 2052.85 1088.78C2048.41 1088.78 2044.81 1091.88 2044.81 1095.71C2044.81 1099.53 2048.41 1102.63 2052.85 1102.63Z" fill="#4682B4"/>
</g>
</g>
<g id="body">
<path id="body_2" fill-rule="evenodd" clip-rule="evenodd" d="M3001.47 1117.87H2495.06H1988.65V1708.14C1988.65 1719.85 1994.45 1730.45 2003.81 1738.11C2013.18 1745.78 2026.13 1750.53 2040.42 1750.53H2949.7C2964.01 1750.53 2976.95 1745.78 2986.31 1738.12C2995.68 1730.45 3001.47 1719.85 3001.47 1708.14V1117.87Z" fill="#708090" fill-opacity="0.5" stroke="black" stroke-width="7.80568"/>
<g id="shapes">
<g id="circle38">
<path d="M2680.08 1604.67C2773.54 1604.67 2849.3 1529.65 2849.3 1437.11C2849.3 1344.57 2773.54 1269.55 2680.08 1269.55C2586.62 1269.55 2510.86 1344.57 2510.86 1437.11C2510.86 1529.65 2586.62 1604.67 2680.08 1604.67Z" stroke="black" stroke-width="7.80568"/>
<path d="M2680.08 1604.67C2773.54 1604.67 2849.3 1529.65 2849.3 1437.11C2849.3 1344.57 2773.54 1269.55 2680.08 1269.55C2586.62 1269.55 2510.86 1344.57 2510.86 1437.11C2510.86 1529.65 2586.62 1604.67 2680.08 1604.67Z" stroke="black" stroke-opacity="0.2" stroke-width="7.80568"/>
</g>
<path id="square3" fill-rule="evenodd" clip-rule="evenodd" d="M2734.63 1549.58C2734.63 1546.35 2732.01 1543.72 2728.78 1543.72H2629.91C2626.68 1543.72 2624.06 1546.35 2624.06 1549.58V1660.61C2624.06 1663.84 2626.68 1666.46 2629.91 1666.46H2728.78C2732.01 1666.46 2734.63 1663.84 2734.63 1660.61V1549.58Z" fill="#A0522D"/>
<path id="square2" fill-rule="evenodd" clip-rule="evenodd" d="M2608.26 1333.21C2609.61 1330.27 2608.42 1326.6 2605.6 1325.01L2517.28 1275.05C2514.46 1273.46 2511.09 1274.55 2509.74 1277.49L2464.43 1376.21C2463.08 1379.15 2464.27 1382.82 2467.08 1384.41L2555.41 1434.37C2558.22 1435.96 2561.6 1434.87 2562.94 1431.93L2608.26 1333.21Z" fill="#4682B4"/>
<path id="square1" fill-rule="evenodd" clip-rule="evenodd" d="M2855.8 1283.46C2854.46 1280.52 2851.08 1279.43 2848.27 1281.02L2759.94 1330.98C2757.13 1332.57 2755.94 1336.24 2757.29 1339.18L2802.6 1437.9C2803.95 1440.84 2807.32 1441.93 2810.14 1440.34L2898.46 1390.38C2901.28 1388.79 2902.47 1385.12 2901.12 1382.18L2855.8 1283.46Z" fill="#708090"/>
<path id="rect42" d="M2286.2 1227.9H2149.6C2129.92 1227.9 2113.97 1236.81 2113.97 1247.81V1324.13C2113.97 1335.12 2129.92 1344.04 2149.6 1344.04H2286.2C2305.88 1344.04 2321.84 1335.12 2321.84 1324.13V1247.81C2321.84 1236.81 2305.88 1227.9 2286.2 1227.9Z" fill="#708090" stroke="black" stroke-width="7.80568"/>
<path id="rect40" d="M2286.2 1376.13H2149.6C2129.92 1376.13 2113.97 1385.04 2113.97 1396.04V1472.36C2113.97 1483.36 2129.92 1492.27 2149.6 1492.27H2286.2C2305.88 1492.27 2321.84 1483.36 2321.84 1472.36V1396.04C2321.84 1385.04 2305.88 1376.13 2286.2 1376.13Z" fill="#A0522D" stroke="black" stroke-width="7.80568"/>
<path id="rect41" d="M2286.2 1524.36H2149.6C2129.92 1524.36 2113.97 1533.27 2113.97 1544.27V1620.59C2113.97 1631.59 2129.92 1640.5 2149.6 1640.5H2286.2C2305.88 1640.5 2321.84 1631.59 2321.84 1620.59V1544.27C2321.84 1533.27 2305.88 1524.36 2286.2 1524.36Z" fill="#4682B4" stroke="black" stroke-width="7.80568"/>
<g id="arrows">
<path id="Polygon 1" d="M2814.3 1493.92C2814.64 1491.67 2817.27 1490.62 2819.03 1492.04L2857.45 1523.04C2859.19 1524.45 2858.76 1527.23 2856.67 1528.06L2810.97 1546.21C2808.88 1547.04 2806.69 1545.3 2807.02 1543.06L2814.3 1493.92Z" fill="black"/>
<path id="Polygon 2" d="M2516.41 1489C2516.35 1486.74 2518.75 1485.24 2520.72 1486.32L2563.89 1509.87C2565.85 1510.94 2565.92 1513.77 2564.01 1514.96L2522.13 1541.08C2520.22 1542.27 2517.76 1540.94 2517.7 1538.67L2516.41 1489Z" fill="black"/>
<path id="Polygon 3" d="M2666.73 1241.73C2666.92 1239.47 2669.48 1238.26 2671.32 1239.56L2711.55 1268.07C2713.37 1269.37 2713.12 1272.17 2711.08 1273.13L2666.58 1294.14C2664.54 1295.1 2662.25 1293.49 2662.45 1291.25L2666.73 1241.73Z" fill="black"/>
</g>
</g>
</g>
</g>
</g>
</g>
</g>
</g>
</g>
</g>
<defs>
<filter id="filter0_d_1_122" x="718.361" y="1311.34" width="268.75" height="53.6275" filterUnits="userSpaceOnUse" color-interpolation-filters="sRGB">
<feFlood flood-opacity="0" result="BackgroundImageFix"/>
<feColorMatrix in="SourceAlpha" type="matrix" values="0 0 0 0 0 0 0 0 0 0 0 0 0 0 0 0 0 0 127 0" result="hardAlpha"/>
<feOffset dy="3.90284"/>
<feGaussianBlur stdDeviation="1.95142"/>
<feComposite in2="hardAlpha" operator="out"/>
<feColorMatrix type="matrix" values="0 0 0 0 0 0 0 0 0 0 0 0 0 0 0 0 0 0 0.25 0"/>
<feBlend mode="normal" in2="BackgroundImageFix" result="effect1_dropShadow_1_122"/>
<feBlend mode="normal" in="SourceGraphic" in2="effect1_dropShadow_1_122" result="shape"/>
</filter>
<filter id="filter1_d_1_122" x="1978.85" y="1060.96" width="1032.42" height="71.6289" filterUnits="userSpaceOnUse" color-interpolation-filters="sRGB">
<feFlood flood-opacity="0" result="BackgroundImageFix"/>
<feColorMatrix in="SourceAlpha" type="matrix" values="0 0 0 0 0 0 0 0 0 0 0 0 0 0 0 0 0 0 127 0" result="hardAlpha"/>
<feOffset dy="3.90284"/>
<feGaussianBlur stdDeviation="1.95142"/>
<feComposite in2="hardAlpha" operator="out"/>
<feColorMatrix type="matrix" values="0 0 0 0 0 0 0 0 0 0 0 0 0 0 0 0 0 0 0.25 0"/>
<feBlend mode="normal" in2="BackgroundImageFix" result="effect1_dropShadow_1_122"/>
<feBlend mode="normal" in="SourceGraphic" in2="effect1_dropShadow_1_122" result="shape"/>
</filter>
</defs>
</svg>
